<svg width="24" height="24" viewBox="0 0 24 24" fill="none" xmlns="http://www.w3.org/2000/svg">
<mask id="mask0_2_834" style="mask-type:alpha" maskUnits="userSpaceOnUse" x="2" y="7" width="20" height="10">
<path d="M11.4508 16.1078L3.33372 9.10941C3.06219 8.87718 2.93519 8.51775 3.00054 8.16649C3.06589 7.81523 3.31366 7.52552 3.65054 7.40649C3.98741 7.28746 4.36219 7.35718 4.63372 7.58941L12.0937 14.0194L19.3237 7.59941C19.5889 7.34471 19.9724 7.25607 20.3225 7.36858C20.6725 7.4811 20.9325 7.77662 20.9996 8.13812C21.0667 8.49961 20.9301 8.86878 20.6437 9.09941L12.768 16.098C12.3934 16.4308 11.8303 16.4351 11.4508 16.1078Z" fill="white"/>
</mask>
<g mask="url(#mask0_2_834)">
<path d="M11.4508 16.1078L3.33372 9.10941C3.06219 8.87718 2.93519 8.51775 3.00054 8.16649C3.06589 7.81523 3.31366 7.52552 3.65054 7.40649C3.98741 7.28746 4.36219 7.35718 4.63372 7.58941L12.0937 14.0194L19.3237 7.59941C19.5889 7.34471 19.9724 7.25607 20.3225 7.36858C20.6725 7.4811 20.9325 7.77662 20.9996 8.13812C21.0667 8.49961 20.9301 8.86878 20.6437 9.09941L12.768 16.098C12.3934 16.4308 11.8303 16.4351 11.4508 16.1078Z" fill="#0075BE"/>
</g>
</svg>
